# xmcd CD database file
#
# Track frame offsets:
#	150
#	12609
#	25134
#	36461
#	45914
#	59715
#	70904
#	84201
#	97539
#	112470
#	127376
#	138635
#
# Disc length: 2009 seconds
#
# Revision: 1
# Processed by: cddbd v1.5.1PL2 Copyright (c) Steve Scherf et al.
# Submitted via: CDex 1.51
#
DISCID=ad07d70c
DTITLE=Various Artist - Velvet Martini Disc III
DYEAR=2005
DGENRE=Jazz
TTITLE0=Rosemary Clooney
TTITLE1=Sammy Davis Jr. - Can't You See I've Got The Blues
TTITLE2=Ella Fitzgerald - Baby Won't You Please Come Home
TTITLE3=Joe Williams - Falling In Love With Love
TTITLE4=Sarah Vaughan - Tenderly
TTITLE5=Dean Martin - Oh Marie
TTITLE6=Mel Torme and The Mel Tones - I Got The Sun In The Morning
TTITLE7=Tony Bennett - Because of You
TTITLE8=Billie Holiday - Lover Man
TTITLE9=Peggy Lee - I Don't Know Enough About You
TTITLE10=Bing Crosby and Louis Armstrong - Gone Fishin'
TTITLE11=June Christy - Tampico
EXTD=YEAR: 2005
EXTT0=
EXTT1=
EXTT2=
EXTT3=
EXTT4=
EXTT5=
EXTT6=
EXTT7=
EXTT8=
EXTT9=
EXTT10=
EXTT11=
PLAYORDER=
